<?xml version="1.0" encoding="UTF-8"?>
<!DOCTYPE svg PUBLIC "-//W3C//DTD SVG 1.1//EN"
  "http://www.w3.org/Graphics/SVG/1.1/DTD/svg11.dtd">
<svg height="86.4pt" viewBox="0,0,86.4,86.4" xmlns:xlink="http://www.w3.org/1999/xlink" xmlns="http://www.w3.org/2000/svg" width="86.4pt" version="1.1" stroke="currentcolor" opacity="context-opacity" fill="context-fill" fill-opacity="0">
<g id="portrait">
<path stroke="context-fill" d="M19.7995+6.20877L67.0245+6.20877C74.2524+6.20877+80.1118+12.0681+80.1118+19.296L80.1118+66.521C80.1118+73.7489+74.2524+79.6083+67.0245+79.6083L19.7995+79.6083C12.5716+79.6083+6.71227+73.7489+6.71227+66.521L6.71227+19.296C6.71227+12.0681+12.5716+6.20877+19.7995+6.20877Z" stroke-width="7.6784"/>
<path stroke="context-fill" d="M21.9833+80.3472C23.0831+80.3472+26.2523+69.1756+26.5259+65.6193C27.4003+54.2519+25.9318+47.8591+26.9635+36.5106C27.2804+33.0247+27.1552+22.3184+27.3787+21.8715C29.0105+18.6079+34.6413+33.9264+35.9918+33.7252C40.819+33.0058+52.693+35.5391+53.218+33.2988C54.4972+27.841+59.8035+20.0242+59.8697+20.4218C61.1489+28.0968+61.2933+58.6794+61.6288+65.7254C61.7687+68.6638+65.229+79.3996+65.826+80.5935" stroke-width="4.86882"/>
<path stroke="context-fill" d="M41.7907+66.8132C42.7321+67.4319+37.6701+66.4857+37.0151+66.8132C36.6132+67.0142+36.9838+73.1464+37.271+73.7207C37.3572+73.8931+39.0787+72.7219+39.2324+72.6121C41.0351+71.3245+42.3114+69.302+44.7755+69.7126C46.9084+70.0681+48.3758+71.5008+50.5744+72.1004C51.3847+72.3214+52.8769+73.9637+52.8769+73.1238C52.8769+71.4774+52.2821+66.3015+51.5125+66.3015C50.4636+66.3015+41.4188+66.5687+41.7907+66.8132Z" stroke-width="2.58283" fill-opacity="1"/>
<path stroke="context-fill" d="M26.7817+66.8132C25.9005+66.8132+28.5442+66.8132+29.4254+66.8132C32.1828+66.8132+37.6974+66.8985+37.6974+66.8985" stroke-width="2.58283" fill-opacity="1"/>
<path stroke="context-fill" d="M51.5125+66.5573C52.4095+66.5573+61.5753+65.2527+61.5753+65.7898" stroke-width="2.58283" fill-opacity="1"/>
<path stroke-width="1.13157" d="M44.3037+75.443C44.3037+75.0578+44.5976+74.7454+44.9602+74.7454C45.3228+74.7454+45.6168+75.0578+45.6168+75.443C45.6168+75.8283+45.3228+76.1406+44.9602+76.1406C44.5976+76.1406+44.3037+75.8283+44.3037+75.443Z" stroke-linecap="round"/>
<path stroke-width="1.13157" d="M44.3858+80.5724C44.3858+80.1645+44.6246+79.8337+44.9192+79.8337C45.2138+79.8337+45.4527+80.1645+45.4527+80.5724C45.4527+80.9803+45.2138+81.311+44.9192+81.311C44.6246+81.311+44.3858+80.9803+44.3858+80.5724Z" stroke-linecap="round"/>
<path stroke="context-fill" d="M37.2816+45.4621C37.2816+43.6525+37.9522+42.1856+38.7794+42.1856C39.6066+42.1856+40.2772+43.6525+40.2772+45.4621C40.2772+47.2716+39.6066+48.7385+38.7794+48.7385C37.9522+48.7385+37.2816+47.2716+37.2816+45.4621Z" stroke-width="1.13157" stroke-linecap="round" fill-opacity="1"/>
<path stroke="context-fill" d="M48.2343+45.3217C48.2343+43.2795+48.666+42.9345+49.5449+42.9345C50.4238+42.9345+51.4171+43.2795+51.4171+45.3217C51.4171+47.3638+50.7047+49.0194+49.8257+49.0194C48.9468+49.0194+48.2343+47.3638+48.2343+45.3217Z" stroke-width="1.13157" stroke-linecap="round" fill-opacity="1"/>
<path stroke="context-fill" stroke-width="1.13157" d="M38.2015+60.6841C38.2015+60.6841+40.282+60.5634+40.9325+60.3465C43.8642+59.3693+42.8234+55.441+44.0217+59.0359C44.2308+59.6632+45.7899+60.2057+46.4744+60.4013C47.8692+60.7998+50.5406+59.7291+49.5149+60.7548" stroke-linecap="round"/>
<path stroke="context-fill" stroke-width="1.13157" d="M41.0063+53.2935C42.7562+54.0435+43.6473+58.9739+43.6473+57.0701C43.6473+55.1705+46.8565+53.1573+44.9569+53.1573C43.2337+53.1573+40.6305+53.1325+41.0063+53.2935Z" stroke-linecap="round"/>
</g>
</svg>
